<?xml version="1.0" encoding="UTF-8"?>
<svg width="24px" height="24px" viewBox="0 0 24 24" version="1.1" xmlns="http://www.w3.org/2000/svg" xmlns:xlink="http://www.w3.org/1999/xlink">
    <!-- Generator: Sketch 64 (93537) - https://sketch.com -->
    <title>Light Mode / Warning Icon / 24x24 / weather-warning-red-24x24</title>
    <desc>Created with Sketch.</desc>
    <g id="Light-Mode-/-Warning-Icon-/-24x24-/-weather-warning-red-24x24" stroke="none" stroke-width="1" fill="none" fill-rule="evenodd">
        <polygon id="Background" fill="#FC5F79" fill-rule="nonzero" points="3.99999997 19 12 5.13999997 20 19"></polygon>
        <path d="M12,3.14354368 C12.7130686,3.14354368 13.3722022,3.52319562 13.73,4.13999997 L13.73,4.13999997 L21.73,18 C22.087083,18.618485 22.0872786,19.3804444 21.7305133,19.9991127 C21.3737479,20.6177809 20.7141648,20.9992679 20,21 L20,21 L3.99999997,21 C3.28583516,20.9992679 2.62625208,20.6177809 2.26948673,19.9991127 C1.91272138,19.3804444 1.91291699,18.618485 2.26999996,18 L2.26999996,18 L10.27,4.13999997 C10.6277978,3.52319562 11.2869314,3.14354368 12,3.14354368 Z M12,5.13999997 L3.99999997,19 L20,19 L12,5.13999997 Z M12,15 C12.5522848,15 13,15.4477153 13,16 C13,16.5522848 12.5522848,17 12,17 C11.4477152,17 11,16.5522848 11,16 C11,15.4477153 11.4477152,15 12,15 Z M13,9.99999999 L13,14 L11,14 L11,9.99999999 L13,9.99999999 Z" id="Outline" fill="#12212B" fill-rule="nonzero"></path>
    </g>
</svg>