<?xml version="1.0" encoding="UTF-8"?>
<svg width="24px" height="24px" viewBox="0 0 24 24" version="1.1" xmlns="http://www.w3.org/2000/svg" xmlns:xlink="http://www.w3.org/1999/xlink">
    <!-- Generator: Sketch 64 (93537) - https://sketch.com -->
    <title>Light Mode / Warning Icon / 24x24 / weather-warning-yellow-24x24</title>
    <desc>Created with Sketch.</desc>
    <g id="Light-Mode-/-Warning-Icon-/-24x24-/-weather-warning-yellow-24x24" stroke="none" stroke-width="1" fill="none" fill-rule="evenodd">
        <path d="M12,3.99999997 C16.418278,3.99999997 20,7.58172198 20,12 C20,16.418278 16.418278,20 12,20 C7.58172198,20 3.99999997,16.418278 3.99999997,12 C3.99999997,7.58172198 7.58172198,3.99999997 12,3.99999997" id="Background" fill="#FCFF40" fill-rule="nonzero"></path>
        <path d="M12,1.99999996 C14.6521649,1.99999996 17.195704,3.05356837 19.0710678,4.92893216 C20.9464316,6.80429595 22,9.34783509 22,12 C22,17.5228475 17.5228475,22 12,22 C6.47715248,22 1.99999996,17.5228475 1.99999996,12 C1.99999996,6.47715248 6.47715248,1.99999996 12,1.99999996 Z M12,3.99999997 C7.58172198,3.99999997 3.99999997,7.58172198 3.99999997,12 C3.99999997,16.418278 7.58172198,20 12,20 C16.418278,20 20,16.418278 20,12 C20,7.58172198 16.418278,3.99999997 12,3.99999997 Z M12,14 C12.5522848,14 13,14.4477153 13,15 C13,15.5522848 12.5522848,16 12,16 C11.4477152,16 11,15.5522848 11,15 C11,14.4477153 11.4477152,14 12,14 Z M13,7.99999998 L13,13 L11,13 L11,7.99999998 L13,7.99999998 Z" id="Outline" fill="#12212B" fill-rule="nonzero"></path>
    </g>
</svg>